<svg width="338" height="338" viewBox="0 0 338 338" fill="none" xmlns="http://www.w3.org/2000/svg">
<g filter="url(#filter0_d_1_4)">
<rect x="12" y="8" width="314" height="314" rx="16" fill="url(#paint0_linear_1_4)"/>
<mask id="mask0_1_4" style="mask-type:alpha" maskUnits="userSpaceOnUse" x="12" y="8" width="314" height="314">
<rect x="12" y="8" width="314" height="314" rx="16" fill="url(#paint1_linear_1_4)"/>
</mask>
<g mask="url(#mask0_1_4)">
<g style="mix-blend-mode:screen" opacity="0.39">
<path d="M22.43 220.72C-13.12 220.72 -13.31 318.72 -44.82 318.72H89.7001C58.0201 318.72 58.17 220.72 22.43 220.72Z" fill="url(#paint2_linear_1_4)"/>
<path d="M122.02 307.39C113.64 313.22 105.73 318.73 89.75 318.73H224.24C191.81 318.73 191.58 295.32 156.99 295.32C139.3 295.32 130.49 301.46 122.02 307.39Z" fill="url(#paint3_linear_1_4)"/>
<path d="M326.81 231.25C316.24 175.73 308.59 142.01 291.44 142.01C274.29 142.01 266.65 175.73 256.08 231.25C248.28 272.25 239.43 318.73 224.19 318.73H358.71C343.46 318.72 334.61 272.26 326.81 231.25Z" fill="url(#paint4_linear_1_4)"/>
</g>
<path d="M510.73 317.8H-57V321.65H510.73V317.8Z" fill="url(#paint5_linear_1_4)"/>
<path d="M493.22 320.72C457.75 320.72 457.78 248.37 426.02 248.37C394.42 248.37 394.09 320.72 358.71 320.72C341.56 320.72 333.91 287.01 323.34 231.48C315.54 190.48 306.69 144.01 291.44 144.01C276.19 144.01 267.35 190.48 259.55 231.48C249.02 287 241.33 320.72 224.19 320.72C189.6 320.72 189.37 297.32 156.94 297.32C124.51 297.32 124.29 320.72 89.7001 320.72C53.9601 320.72 54.1 222.72 22.43 222.72C-9.23996 222.72 -9.20002 320.72 -44.82 320.72V318.72C-13.31 318.72 -13.12 220.72 22.43 220.72C58.17 220.72 58.0301 318.72 89.7001 318.72C105.7 318.72 113.59 313.21 121.97 307.38C130.35 301.55 139.3 295.31 156.97 295.31C191.56 295.31 191.79 318.72 224.22 318.72C239.46 318.72 248.31 272.24 256.11 231.24C266.68 175.72 274.33 142 291.47 142C308.61 142 316.27 175.72 326.84 231.24C334.64 272.24 343.49 318.72 358.74 318.72C390.34 318.72 390.68 246.36 426.05 246.36C461.42 246.36 461.46 318.72 493.22 318.72V320.72Z" fill="url(#paint6_linear_1_4)"/>
<path d="M493.22 320.78C458.06 320.78 457.94 258.97 426.02 258.97C394.1 258.97 393.81 320.78 358.71 320.78C341.71 320.78 334.05 291.96 323.47 244.49C315.68 209.49 306.84 169.81 291.47 169.81C276.1 169.81 267.24 209.48 259.47 244.49C248.89 291.96 241.24 320.78 224.24 320.78C189.74 320.78 189.71 300.78 156.99 300.78C124.27 300.78 124.25 320.78 89.75 320.78C54.26 320.78 54.38 237.08 22.48 237.08C-9.21004 237.08 -9.44997 320.78 -44.77 320.78V318.95C-13.07 318.95 -12.84 235.25 22.48 235.25C57.8 235.25 57.87 318.95 89.75 318.95C105.87 318.95 113.75 314.23 122.2 309.23C130.65 304.23 139.49 298.95 156.99 298.95C191.49 298.95 191.52 318.95 224.24 318.95C239.63 318.95 248.47 279.27 256.24 244.26C266.81 196.79 274.46 167.97 291.46 167.97C308.46 167.97 316.12 196.79 326.7 244.26C334.49 279.26 343.33 318.95 358.7 318.95C390.52 318.95 390.91 257.13 426.01 257.13C461.11 257.13 461.3 318.95 493.21 318.95L493.22 320.78Z" fill="url(#paint7_linear_1_4)"/>
<path d="M495.89 321.2C461.39 321.2 461.29 269.62 428.69 269.62C396.09 269.62 395.81 321.2 361.38 321.2C326.38 321.2 326.21 195.2 294.11 195.2C262.01 195.2 261.98 321.2 226.86 321.2C192.86 321.2 192.78 304.51 159.61 304.51C126.44 304.51 126.31 321.2 92.37 321.2C57.65 321.2 57.59 251.36 25.11 251.36C-7.37003 251.36 -7.44004 321.2 -42.15 321.2V318.52C-9.66004 318.52 -9.61003 248.69 25.11 248.69C59.83 248.69 59.88 318.52 92.37 318.52C125.51 318.52 125.67 301.84 159.61 301.84C193.55 301.84 193.69 318.52 226.86 318.52C259.11 318.52 258.99 192.52 294.11 192.52C329.23 192.52 329.28 318.52 361.38 318.52C393.88 318.52 394.26 266.95 428.69 266.95C463.12 266.95 463.29 318.52 495.89 318.52V321.2Z" fill="url(#paint8_linear_1_4)"/>
<path d="M495.89 321.2C461.63 321.2 461.35 281.08 428.69 281.08C396.03 281.08 395.69 321.2 361.38 321.2C326.56 321.2 326.38 223.2 294.11 223.2C261.84 223.2 261.76 321.2 226.86 321.2C192.94 321.2 192.86 308.2 159.61 308.2C126.36 308.2 126.31 321.2 92.37 321.2C57.8 321.2 57.71 266.88 25.11 266.88C-7.49003 266.88 -7.58004 321.2 -42.15 321.2V318.52C-9.56004 318.52 -9.46003 264.21 25.11 264.21C59.68 264.21 59.78 318.52 92.37 318.52C125.7 318.52 125.66 305.52 159.61 305.52C193.56 305.52 193.61 318.52 226.86 318.52C259.15 318.52 259.21 220.52 294.11 220.52C329.01 220.52 329.11 318.52 361.38 318.52C394.04 318.52 394.38 278.41 428.69 278.41C463 278.41 463.24 318.52 495.89 318.52V321.2Z" fill="url(#paint9_linear_1_4)"/>
<path d="M495.89 321.2C461.66 321.2 461.67 292.54 428.69 292.54C395.87 292.54 395.5 321.2 361.38 321.2C326.66 321.2 326.59 251.2 294.11 251.2C261.63 251.2 261.58 321.2 226.86 321.2C193.1 321.2 192.91 311.93 159.61 311.93C126.31 311.93 126.09 321.2 92.37 321.2C58.04 321.2 57.84 282.4 25.11 282.4C-7.62003 282.4 -7.82004 321.2 -42.15 321.2V318.52C-9.42004 318.52 -9.23003 279.73 25.11 279.73C59.45 279.73 59.63 318.52 92.37 318.52C125.61 318.52 125.89 309.25 159.61 309.25C193.33 309.25 193.61 318.52 226.86 318.52C259.34 318.52 259.39 248.52 294.11 248.52C328.83 248.52 328.89 318.52 361.38 318.52C394.2 318.52 394.57 289.87 428.69 289.87C462.81 289.87 462.91 318.52 495.89 318.52V321.2Z" fill="url(#paint10_linear_1_4)"/>
<path d="M495.89 321.2C461.95 321.2 461.81 304 428.69 304C395.57 304 395.36 321.2 361.38 321.2C326.98 321.2 326.83 279.2 294.11 279.2C261.39 279.2 261.32 321.2 226.86 321.2C193.37 321.2 192.86 315.63 159.61 315.63C126.36 315.63 125.88 321.2 92.37 321.2C58.44 321.2 57.97 297.92 25.11 297.92C-7.75003 297.92 -8.09004 321.2 -42.15 321.2V318.52C-9.15004 318.52 -8.97003 295.24 25.11 295.24C59.03 295.24 59.48 318.52 92.37 318.52C103.566 318.663 114.75 317.739 125.77 315.76C148.171 311.97 171.049 311.97 193.45 315.76C204.474 317.739 215.661 318.663 226.86 318.52C259.65 318.52 259.64 276.52 294.11 276.52C328.58 276.52 328.65 318.52 361.38 318.52C394.53 318.52 394.71 301.33 428.69 301.33C462.67 301.33 462.77 318.52 495.89 318.52V321.2Z" fill="url(#paint11_linear_1_4)"/>
<path d="M495.89 321.2C462.39 321.2 461.96 315.46 428.69 315.46C395.42 315.46 394.9 321.2 361.38 321.2C327.43 321.2 327.38 307.2 294.11 307.2C260.84 307.2 260.79 321.2 226.86 321.2C193.32 321.2 193.05 319.34 159.61 319.34C113.79 319.34 91.67 324.95 58.43 317.28C36.5188 312.07 13.6912 312.07 -8.21999 317.28C-19.3081 320.075 -30.7168 321.393 -42.15 321.2V318.52C-9.04004 318.52 -8.45003 310.76 25.11 310.76C68.53 310.76 50.38 321.76 125.91 317.6C148.359 316.34 170.861 316.34 193.31 317.6C236.8 320 243.8 318.36 259.97 311.6C268.36 308.11 277.03 304.5 294.11 304.5C328.05 304.5 328.11 318.5 361.38 318.5C372.589 318.646 383.786 317.695 394.81 315.66C417.21 311.745 440.12 311.745 462.52 315.66C473.524 317.697 484.701 318.648 495.89 318.5V321.2Z" fill="url(#paint12_linear_1_4)"/>
</g>
</g>
<defs>
<filter id="filter0_d_1_4" x="0" y="0" width="338" height="338" filterUnits="userSpaceOnUse" color-interpolation-filters="sRGB">
<feFlood flood-opacity="0" result="BackgroundImageFix"/>
<feColorMatrix in="SourceAlpha" type="matrix" values="0 0 0 0 0 0 0 0 0 0 0 0 0 0 0 0 0 0 127 0" result="hardAlpha"/>
<feOffset dy="4"/>
<feGaussianBlur stdDeviation="6"/>
<feComposite in2="hardAlpha" operator="out"/>
<feColorMatrix type="matrix" values="0 0 0 0 0 0 0 0 0 0 0 0 0 0 0 0 0 0 0.25 0"/>
<feBlend mode="normal" in2="BackgroundImageFix" result="effect1_dropShadow_1_4"/>
<feBlend mode="normal" in="SourceGraphic" in2="effect1_dropShadow_1_4" result="shape"/>
</filter>
<linearGradient id="paint0_linear_1_4" x1="6.03402" y1="27.2688" x2="273.525" y2="360.528" gradientUnits="userSpaceOnUse">
<stop stop-color="#FDEC56"/>
<stop offset="1" stop-color="#F262FF"/>
</linearGradient>
<linearGradient id="paint1_linear_1_4" x1="6.03402" y1="27.2688" x2="273.525" y2="360.528" gradientUnits="userSpaceOnUse">
<stop stop-color="#FDEC56"/>
<stop offset="1" stop-color="#F262FF"/>
</linearGradient>
<linearGradient id="paint2_linear_1_4" x1="-44.82" y1="269.74" x2="89.7001" y2="269.74" gradientUnits="userSpaceOnUse">
<stop stop-color="#CF005B"/>
<stop offset="1" stop-color="#FF3C97"/>
</linearGradient>
<linearGradient id="paint3_linear_1_4" x1="89.7" y1="307.02" x2="224.19" y2="307.02" gradientUnits="userSpaceOnUse">
<stop stop-color="#CF005B"/>
<stop offset="1" stop-color="#FF3C97"/>
</linearGradient>
<linearGradient id="paint4_linear_1_4" x1="224.19" y1="230.37" x2="358.71" y2="230.37" gradientUnits="userSpaceOnUse">
<stop stop-color="#CF005B"/>
<stop offset="1" stop-color="#FF3C97"/>
</linearGradient>
<linearGradient id="paint5_linear_1_4" x1="-57" y1="319.73" x2="510.73" y2="319.73" gradientUnits="userSpaceOnUse">
<stop stop-color="#D844FF"/>
<stop offset="1" stop-color="#28B7FF"/>
</linearGradient>
<linearGradient id="paint6_linear_1_4" x1="-44.82" y1="231.36" x2="493.22" y2="231.36" gradientUnits="userSpaceOnUse">
<stop stop-color="#D844FF"/>
<stop offset="1" stop-color="#28B7FF"/>
</linearGradient>
<linearGradient id="paint7_linear_1_4" x1="-44.82" y1="244.38" x2="493.22" y2="244.38" gradientUnits="userSpaceOnUse">
<stop stop-color="#D844FF"/>
<stop offset="1" stop-color="#28B7FF"/>
</linearGradient>
<linearGradient id="paint8_linear_1_4" x1="-42.15" y1="256.88" x2="495.89" y2="256.88" gradientUnits="userSpaceOnUse">
<stop stop-color="#D844FF"/>
<stop offset="1" stop-color="#28B7FF"/>
</linearGradient>
<linearGradient id="paint9_linear_1_4" x1="-42.15" y1="270.87" x2="495.89" y2="270.87" gradientUnits="userSpaceOnUse">
<stop stop-color="#D844FF"/>
<stop offset="1" stop-color="#28B7FF"/>
</linearGradient>
<linearGradient id="paint10_linear_1_4" x1="-42.15" y1="284.87" x2="495.89" y2="284.87" gradientUnits="userSpaceOnUse">
<stop stop-color="#D844FF"/>
<stop offset="1" stop-color="#28B7FF"/>
</linearGradient>
<linearGradient id="paint11_linear_1_4" x1="-42.15" y1="298.86" x2="495.89" y2="298.86" gradientUnits="userSpaceOnUse">
<stop stop-color="#D844FF"/>
<stop offset="1" stop-color="#28B7FF"/>
</linearGradient>
<linearGradient id="paint12_linear_1_4" x1="-42.15" y1="312.92" x2="495.89" y2="312.92" gradientUnits="userSpaceOnUse">
<stop stop-color="#D844FF"/>
<stop offset="1" stop-color="#28B7FF"/>
</linearGradient>
</defs>
</svg>
